PathFileType  4	(X/Y/Z) C:\Users\antoi\Documents\MyRepositories\mobilecap\ResultsAnalysis
DataRate	CameraRate	NumFrames	NumMarkers	Units	OrigDataRate	OrigDataStartFrame	OrigNumFrames
100.0	100.0	4	51	mm	100.0	1	311
Frame#	Time	r_knee			r_shank_antsup			r_ankle			r_calc			r_5meta			r_toe			L_knee			L_shank_antsup			L_ankle			L_calc			L_5meta			L_toe			r_sh2			r_sh3			r_sh4			L_sh2			L_sh3			r_thigh1			r_thigh2			r_thigh3			r_thigh4			r_thigh5			L_thigh1			L_thigh2			L_thigh3			L_thigh4			r.ASIS			r.PSIS			L.ASIS			L.PSIS			C7			R_Shoulder			L_Shoulder			R_Sternum			L_Sternum			R_humerus			R_elbow_med			R_elbow_lat			R_forearm			R_wrist_radius			R_wrist_ulna			L_humerus			L_elbow_med			L_elbow_lat			L_forearm			L_wrist_radius			L_wrist_ulna			R_HJC			L_HJC			R_HJC_reg			L_HJC_reg			
		X1	Y1	Z1	X2	Y2	Z2	X3	Y3	Z3	X4	Y4	Z4	X5	Y5	Z5	X6	Y6	Z6	X7	Y7	Z7	X8	Y8	Z8	X9	Y9	Z9	X10	Y10	Z10	X11	Y11	Z11	X12	Y12	Z12	X13	Y13	Z13	X14	Y14	Z14	X15	Y15	Z15	X16	Y16	Z16	X17	Y17	Z17	X18	Y18	Z18	X19	Y19	Z19	X20	Y20	Z20	X21	Y21	Z21	X22	Y22	Z22	X23	Y23	Z23	X24	Y24	Z24	X25	Y25	Z25	X26	Y26	Z26	X27	Y27	Z27	X28	Y28	Z28	X29	Y29	Z29	X30	Y30	Z30	X31	Y31	Z31	X32	Y32	Z32	X33	Y33	Z33	X34	Y34	Z34	X35	Y35	Z35	X36	Y36	Z36	X37	Y37	Z37	X38	Y38	Z38	X39	Y39	Z39	X40	Y40	Z40	X41	Y41	Z41	X42	Y42	Z42	X43	Y43	Z43	X44	Y44	Z44	X45	Y45	Z45	X46	Y46	Z46	X47	Y47	Z47	X48	Y48	Z48	X49	Y49	Z49	X50	Y50	Z50	X51	Y51	Z51	

1	0.00000000	-1171.28758	782.70259	-433.20873	-1141.82164	721.25798	-433.40019	-1202.30764	393.00968	-443.28728	-1256.35427	363.16758	-484.29959	-1094.67908	349.76019	-412.56257	-1054.88625	366.31934	-466.63190	-1150.11206	777.61486	-703.69077	-1121.42838	692.79530	-691.29450	-1207.26929	402.41702	-704.39387	-1265.44774	360.83837	-660.30940	-1107.35278	351.77103	-733.94849	-1056.58985	366.98872	-680.32838	-1160.83395	610.30870	-422.01208	-1212.71477	738.11472	-409.39898	-1239.36278	622.18914	-404.89903	-1195.29116	720.04500	-738.85654	-1215.41620	596.30149	-742.52575	-1099.86497	1028.71279	-385.07519	-1106.08080	916.06692	-403.08262	-1215.51514	919.56797	-426.10411	-1212.04964	1031.72011	-396.53524	-1170.19505	896.48580	-403.58082	-1083.87567	1054.14747	-755.17631	-1085.93266	916.62585	-728.38062	-1195.24027	1050.77327	-768.09279	-1201.46509	919.76679	-717.29791	-1044.86324	1233.26745	-456.91281	-1252.97482	1269.62622	-537.66358	-1039.42815	1237.93077	-678.92619	-1249.45648	1272.44247	-619.58753	-1154.08440	1712.07493	-554.02106	-1110.09686	1674.28014	-412.98053	-1104.16854	1685.48031	-693.53217	-1033.05682	1640.73264	-528.35336	-1033.96159	1641.84175	-570.84889	-1095.14956	1561.69393	-347.58320	-1202.75501	1363.72881	-342.91030	-1165.67018	1375.14120	-288.12629	-1095.79438	1310.02046	-281.46940	-1035.94870	1177.17890	-290.78115	-1060.56475	1167.96614	-262.92343	-1103.37895	1588.69054	-771.52180	-1189.26139	1377.93994	-789.06646	-1153.67957	1401.70704	-841.32537	-1085.28699	1317.56552	-850.71798	-1033.36686	1200.10987	-840.99639	-1058.41300	1192.13745	-871.74406	-1130.84079	1148.56950	-468.78195	-1123.62653	1155.29472	-676.05487	-1117.79652	1165.93969	-492.83869	-1111.50986	1170.97182	-639.22241	
2	0.01000000	-1171.12233	782.60111	-433.19840	-1141.83552	721.17607	-433.41766	-1202.28539	392.94686	-443.20551	-1256.40671	363.11733	-484.30527	-1094.68238	349.76694	-412.56062	-1054.88976	366.36499	-466.69696	-1149.82449	777.58519	-703.70772	-1121.18824	692.63002	-691.32414	-1207.25793	402.40595	-704.38785	-1265.47080	360.93028	-660.49247	-1107.35402	351.77408	-733.94772	-1056.58455	367.00906	-680.35746	-1160.71587	610.22217	-421.98172	-1212.47664	738.08182	-409.40841	-1239.16394	622.31876	-404.75478	-1195.09137	719.88619	-738.70704	-1215.24778	596.15336	-742.27724	-1099.70125	1028.64641	-385.07281	-1105.62719	916.00441	-403.32612	-1215.37727	919.48402	-426.13387	-1211.94578	1031.57366	-396.69470	-1169.89264	896.70318	-403.47640	-1083.70278	1054.12616	-755.18047	-1085.62913	916.51936	-728.30094	-1194.99507	1050.72752	-768.11693	-1201.24011	919.63948	-717.28452	-1044.64258	1233.24271	-456.99369	-1252.73759	1269.55627	-537.72480	-1039.22328	1237.92408	-678.95252	-1249.22572	1272.43906	-619.72010	-1153.78341	1712.01624	-553.88081	-1109.75088	1674.07772	-412.74725	-1103.94079	1685.41723	-693.45553	-1032.78332	1640.71415	-528.36728	-1033.73040	1641.81797	-570.74858	-1094.66028	1561.59430	-347.42065	-1202.75631	1363.68659	-342.31789	-1164.92083	1374.73521	-288.17479	-1094.95554	1309.73657	-281.62456	-1034.97675	1176.89480	-291.16988	-1059.50652	1167.63103	-263.49674	-1102.97201	1588.69005	-771.47536	-1188.34032	1377.77045	-789.40680	-1152.69192	1401.62378	-841.56337	-1084.27767	1317.58049	-851.04898	-1032.33972	1200.03461	-841.75522	-1057.56815	1192.23841	-872.67627	-1130.61971	1148.53089	-468.86938	-1123.38220	1155.28440	-676.14054	-1117.53372	1165.84674	-492.95456	-1111.26600	1170.99133	-639.29884	
3	0.02000000	-1170.99080	782.60349	-433.22718	-1141.75814	721.20177	-433.40022	-1202.29873	392.87452	-443.19898	-1256.37981	363.10991	-484.29050	-1094.65507	349.81084	-412.56553	-1054.91072	366.38453	-466.72589	-1149.52640	777.54180	-703.66426	-1120.93963	692.51582	-691.35968	-1207.26781	402.40089	-704.39286	-1265.47281	360.89203	-660.47145	-1107.36331	351.77753	-733.93926	-1056.61371	366.99811	-680.33135	-1160.60962	610.23650	-421.98978	-1212.13152	738.05405	-409.41427	-1239.19763	622.27473	-404.92005	-1194.89851	719.68737	-738.52545	-1215.05108	596.12416	-742.23082	-1099.51381	1028.53114	-385.15509	-1105.40786	916.07313	-403.36981	-1215.23754	919.46175	-426.18802	-1211.76122	1031.54429	-396.75155	-1169.72002	896.69691	-403.47625	-1083.50143	1054.10026	-755.18478	-1085.33864	916.41416	-728.15968	-1194.72304	1050.67888	-768.16048	-1200.99340	919.59658	-717.34050	-1044.41782	1233.21044	-457.09137	-1252.46940	1269.56163	-537.79951	-1038.99909	1237.87565	-678.99579	-1248.95851	1272.42812	-619.71556	-1153.44152	1711.97149	-553.78921	-1109.31169	1673.92147	-412.54997	-1103.70743	1685.34662	-693.35435	-1032.47424	1640.65278	-528.36671	-1033.45219	1641.77369	-570.62444	-1094.10484	1561.44368	-347.22965	-1202.20769	1363.42689	-342.30289	-1164.17235	1374.38636	-288.16571	-1094.09660	1309.40523	-281.84887	-1034.00753	1176.63440	-291.65730	-1058.47839	1167.38960	-263.92501	-1102.53551	1588.72120	-771.44206	-1187.29861	1377.57189	-789.58289	-1151.69615	1401.52890	-841.66146	-1083.24407	1317.56429	-851.37334	-1031.38573	1199.93923	-842.46668	-1056.66300	1192.25266	-873.46842	-1130.38543	1148.51180	-468.91790	-1123.16755	1155.25212	-676.19013	-1117.31733	1165.85459	-493.03269	-1111.04695	1170.97290	-639.34128	
4	0.03000000	-1170.87813	782.65005	-433.24010	-1141.65340	721.25194	-433.38277	-1202.31886	392.87037	-443.21930	-1256.36698	363.08485	-484.27207	-1094.65590	349.83589	-412.58460	-1054.92929	366.38886	-466.71256	-1149.18613	777.53563	-703.70682	-1120.66832	692.40750	-691.44069	-1207.29177	402.40185	-704.40374	-1265.45772	360.82632	-660.40804	-1107.37676	351.78913	-733.93300	-1056.62324	366.99988	-680.28886	-1160.56511	610.26370	-422.00684	-1211.85111	738.06949	-409.40250	-1239.38364	622.11734	-405.27201	-1194.63117	719.53375	-738.40935	-1214.78385	596.17944	-742.41803	-1099.21485	1028.40265	-385.15579	-1105.36780	916.25595	-403.21327	-1215.11780	919.49471	-426.23576	-1211.56313	1031.57735	-396.73468	-1169.60268	896.60498	-403.51403	-1083.23098	1053.96665	-755.15335	-1085.06396	916.32942	-728.05082	-1194.43054	1050.63111	-768.23257	-1200.71033	919.51255	-717.29429	-1044.17366	1233.18796	-457.14672	-1252.17675	1269.57699	-537.79595	-1038.76092	1237.79003	-679.06027	-1248.71637	1272.38953	-619.64070	-1153.04665	1711.94107	-553.75235	-1108.86626	1673.75604	-412.42105	-1103.48252	1685.26937	-693.14731	-1032.10644	1640.56479	-528.29806	-1033.11248	1641.70212	-570.54109	-1093.52236	1561.25234	-347.13460	-1201.24670	1362.99354	-342.72507	-1163.41482	1374.06710	-288.29828	-1093.21836	1309.08255	-282.17765	-1033.05973	1176.40624	-292.24414	-1057.53929	1167.14965	-264.33354	-1102.02348	1588.74844	-771.43927	-1186.20715	1377.33999	-789.58186	-1150.68682	1401.46182	-841.65144	-1082.17765	1317.48992	-851.65531	-1030.48198	1199.83371	-843.09470	-1055.72854	1192.20362	-874.07175	-1130.11961	1148.50396	-468.90492	-1122.97274	1155.18542	-676.18152	-1117.05925	1165.87798	-493.00311	-1110.87282	1170.90495	-639.32358	
